# xmcd
#
# Track frame offsets:
#	150
#	12014
#	23111
#	35482
#	51550
#	63674
#	75150
#	86297
#	95645
#	110540
#	126623
#	138613
#	149310
#	161054
#	178723
#	193562
#	204843
#	218735
#	229382
#	245937
#
# Disc length: 3433 seconds
#
# Revision: 0
# Processed by: cddbd v1.5.2PL0 Copyright (c) Steve Scherf et al.
# Submitted via: dBpowerAMP V4.0
#
DISCID=230d6714
DTITLE=Country - 100 tubes country - CD3
DYEAR=1900
DGENRE=Country
TTITLE0=Dolly Parton - Jolene
TTITLE1=Wanda Jackson - I Gotta Know
TTITLE2=Lorrie Morgan - What Part of No
TTITLE3=Patty Loveless - Blame It On Your Heart
TTITLE4=Tammy Wynette - Stand By Your Man
TTITLE5=Patsy Cline - Walkin' After Midnight
TTITLE6=Sandy Posey - I Will Follow Him
TTITLE7=Willie Nelson - One Step Beyond
TTITLE8=Jeanniec C Riley - Harper Valley P.T.A.
TTITLE9=Lynn Anderson - The Devil Went Down In Georgia
TTITLE10=Holy Dunn - There Goes My Heart Again
TTITLE11=Janie Friche - Down To My Last Broken Heart
TTITLE12=Jeanne Pruett - Standing On the Promises
TTITLE13=Amelia White - Windowpane
TTITLE14=Juice Newton - Queen of Hearts
TTITLE15=Kitty Wells - It Was Not God Who Made Honky Tonk Angels
TTITLE16=Lee Greenwood - Dixie Road
TTITLE17=Billie Joe Spears - I'm So Lonesome I Could Cry
TTITLE18=Tanya Tucker - Little Things
TTITLE19=Donna Fargo - The Happiest Girl In the USA
EXTD=
EXTT0=
EXTT1=
EXTT2=
EXTT3=
EXTT4=
EXTT5=
EXTT6=
EXTT7=
EXTT8=
EXTT9=
EXTT10=
EXTT11=
EXTT12=
EXTT13=
EXTT14=
EXTT15=
EXTT16=
EXTT17=
EXTT18=
EXTT19=
PLAYORDER=
